# xmcd
# 
# Track frame offsets:
#     150
#     36583
#     61905
#     85799
# 
# Disc length: 1577
# 
# Revision: 6
# Processed by: cddbd v1.5.2PL0 Copyright (c) Steve Scherf et al.
# Submitted via: BonkEnc v1.0
# 
DISCID=2d062704
DTITLE=Yoko Kanno - Sharon Apple: Cream P.U.F.
DYEAR=1995
DGENRE=Anime
TTITLE0=Information High
TTITLE1=Idol Talk
TTITLE2=The Borderline
TTITLE3=Santi-U
EXTD=Macross Plus - 3rd Japanese Animation Soundtrack VICL-15037 - Victor Entertainment (c)1995 YEAR: 1995
EXTT0=
EXTT1=
EXTT2=
EXTT3=
PLAYORDER=
